<?xml version="1.0" encoding="UTF-8" standalone="no"?>
<!DOCTYPE svg PUBLIC "-//W3C//DTD SVG 1.1//EN" "http://www.w3.org/Graphics/SVG/1.1/DTD/svg11.dtd">
<svg width="100%" height="100%" viewBox="0 0 1500 600" version="1.1" xmlns="http://www.w3.org/2000/svg" xmlns:xlink="http://www.w3.org/1999/xlink" xml:space="preserve" xmlns:serif="http://www.serif.com/" style="fill-rule:evenodd;clip-rule:evenodd;stroke-linejoin:round;stroke-miterlimit:2;">
    <g transform="matrix(1.56154,0,0,1.56154,64.7665,159.025)">
        <g transform="matrix(1,0,0,1,-930.389,-1159.87)">
            <g transform="matrix(1,0,0,1,0,60)">
                <path d="M1158.19,1124.35C1179.92,1136.65 1194.61,1159.99 1194.61,1186.73C1194.61,1201.36 1190.21,1214.98 1182.66,1226.33C1174.41,1199.58 1149.79,1179.98 1120.52,1179.26C1121.72,1154.72 1136.87,1133.83 1158.19,1124.35Z" style="fill:rgb(254,214,56);"/>
            </g>
            <g transform="matrix(1,0,0,1,0,60)">
                <path d="M1165.42,1244.42C1153.53,1253.19 1138.85,1258.37 1122.97,1258.37C1083.43,1258.37 1051.33,1226.27 1051.33,1186.73C1051.33,1147.19 1083.43,1115.09 1122.97,1115.09C1134.89,1115.09 1146.13,1118.01 1156.02,1123.17C1132.29,1132.36 1115.44,1155.42 1115.44,1182.39C1115.44,1212.79 1136.86,1238.23 1165.42,1244.42Z"/>
            </g>
            <g transform="matrix(1,0,0,1,0,60)">
                <path d="M1123.1,1164.19C1147.63,1167.87 1169.58,1184.2 1179.26,1208.93C1181.34,1214.23 1182.74,1219.63 1183.5,1225.04C1183.23,1225.47 1182.95,1225.9 1182.66,1226.33C1174.41,1199.58 1149.79,1179.98 1120.52,1179.26C1120.78,1174.05 1121.66,1169 1123.1,1164.19Z" style="fill:rgb(232,173,9);"/>
            </g>
            <g transform="matrix(1,0,0,1,422.942,232.805)">
                <circle cx="670.149" cy="977.074" r="11.848" style="fill:rgb(232,173,9);"/>
            </g>
            <g transform="matrix(0.655576,0,0,0.655576,653.757,569.333)">
                <circle cx="670.149" cy="977.074" r="11.848" style="fill:white;"/>
            </g>
            <g transform="matrix(0.406495,0,0,0.406495,820.679,812.703)">
                <circle cx="670.149" cy="977.074" r="11.848"/>
            </g>
        </g>
        <g transform="matrix(1.36646,0,0,0.452143,-906.154,-423.943)">
            <path d="M707.152,1019.92L675.391,1019.92L675.391,969.495L757.355,969.495L757.355,1019.92L725.594,1019.92L725.594,1282.67L707.152,1282.67L707.152,1019.92Z" style="fill-rule:nonzero;"/>
        </g>
        <g transform="matrix(1.36646,0,0,0.452143,-894.154,-423.943)">
            <path d="M856.589,969.495L875.031,969.495L875.031,1102.2L875.909,1102.2L918.794,969.495L943.675,969.495L895.229,1114.14L946.895,1282.67L920.989,1282.67L876.055,1128.74L875.031,1128.74L875.031,1282.67L856.589,1282.67L856.589,969.495Z" style="fill-rule:nonzero;"/>
        </g>
        <g transform="matrix(1.36646,0,0,0.452143,-894.154,-423.943)">
            <path d="M999.147,1253.48L998.708,1253.48C996.171,1265.57 992.951,1274.34 989.048,1279.8C985.145,1285.25 980.852,1287.98 976.168,1287.98C972.948,1287.98 969.801,1286.65 966.728,1284C963.654,1281.34 960.922,1277.36 958.531,1272.05C956.141,1266.75 954.214,1260.11 952.75,1252.15C951.286,1244.19 950.554,1234.9 950.554,1224.28C950.554,1212.78 951.237,1202.98 952.604,1194.87C953.97,1186.76 955.799,1179.97 958.092,1174.52C960.385,1169.06 963.044,1164.71 966.069,1161.47C969.094,1158.23 972.241,1155.79 975.509,1154.17C978.778,1152.55 982.071,1151.52 985.389,1151.08C988.707,1150.63 991.829,1150.41 994.756,1150.41L999.147,1150.41L999.147,1144.66C999.147,1131.39 997.635,1121.44 994.61,1114.8C991.585,1108.17 987.731,1104.85 983.047,1104.85C979.339,1104.85 975.875,1106.84 972.655,1110.82C969.435,1114.8 966.654,1120.18 964.313,1126.97L955.092,1099.1C958.995,1087.01 963.556,1078.31 968.777,1073C973.997,1067.69 979.388,1065.04 984.95,1065.04C989.926,1065.04 994.122,1066.74 997.537,1070.13C1000.95,1073.52 1003.78,1077.87 1006.03,1083.18C1008.27,1088.48 1010,1094.6 1011.22,1101.53C1012.44,1108.46 1013.32,1115.47 1013.86,1122.54C1014.39,1129.62 1014.71,1136.48 1014.81,1143.11C1014.91,1149.75 1014.95,1155.57 1014.95,1160.59L1014.95,1282.67L999.147,1282.67L999.147,1253.48ZM998.123,1187.57L994.463,1187.57C992.024,1187.57 989.292,1187.86 986.267,1188.45C983.242,1189.04 980.388,1190.44 977.705,1192.65C975.022,1194.87 972.753,1198.11 970.899,1202.39C969.045,1206.66 968.118,1212.63 968.118,1220.3C968.118,1225.31 968.484,1229.52 969.216,1232.91C969.948,1236.3 970.899,1239.17 972.07,1241.53C973.241,1243.89 974.558,1245.59 976.022,1246.62C977.485,1247.65 978.949,1248.17 980.413,1248.17C986.462,1248.17 990.926,1243.82 993.805,1235.12C996.683,1226.42 998.123,1214.55 998.123,1199.51L998.123,1187.57Z" style="fill-rule:nonzero;"/>
        </g>
        <g transform="matrix(1.36646,0,0,0.452143,-894.154,-423.943)">
            <path d="M1033.84,1070.35L1050.52,1070.35L1050.52,1104.41L1050.81,1104.41C1052.47,1093.79 1055.01,1084.58 1058.42,1076.76C1061.84,1068.95 1066.47,1065.04 1072.33,1065.04C1077.01,1065.04 1080.99,1067.4 1084.26,1072.12C1087.53,1076.84 1090.18,1083.03 1092.23,1090.7C1094.28,1098.36 1095.75,1107.21 1096.62,1117.24C1097.5,1127.26 1097.94,1137.73 1097.94,1148.64L1097.94,1282.67L1080.38,1282.67L1080.38,1175.18C1080.38,1169.28 1080.28,1162.72 1080.09,1155.5C1079.89,1148.27 1079.38,1141.49 1078.55,1135.15C1077.72,1128.81 1076.43,1123.5 1074.67,1119.23C1072.91,1114.95 1070.52,1112.81 1067.5,1112.81C1064.57,1112.81 1062.11,1114.29 1060.11,1117.24C1058.11,1120.18 1056.45,1124.17 1055.13,1129.18C1053.81,1134.19 1052.86,1139.94 1052.28,1146.43C1051.69,1152.92 1051.4,1159.7 1051.4,1166.78L1051.4,1282.67L1033.84,1282.67L1033.84,1070.35Z" style="fill-rule:nonzero;"/>
        </g>
        <g transform="matrix(1.36646,0,0,0.452143,-894.154,-423.943)">
            <path d="M1119.46,969.495L1160.29,969.495C1167.12,969.495 1173.71,972.665 1180.05,979.006C1186.39,985.346 1192.01,995.003 1196.88,1007.98C1201.76,1020.95 1205.67,1037.25 1208.59,1056.86C1211.52,1076.47 1212.98,1099.54 1212.98,1126.08C1212.98,1152.92 1211.3,1176.14 1207.93,1195.75C1204.57,1215.36 1200.23,1231.58 1194.91,1244.41C1189.59,1257.24 1183.69,1266.82 1177.2,1273.16C1170.71,1279.5 1164.34,1282.67 1158.1,1282.67L1119.46,1282.67L1119.46,969.495ZM1151.66,1232.24C1157.41,1232.24 1162.86,1230.25 1167.98,1226.27C1173.1,1222.29 1177.56,1216.1 1181.37,1207.69C1185.17,1199.29 1188.17,1188.38 1190.37,1174.96C1192.57,1161.54 1193.66,1145.25 1193.66,1126.08C1193.66,1107.21 1192.69,1090.99 1190.74,1077.43C1188.79,1063.86 1186.08,1052.88 1182.61,1044.47C1179.15,1036.07 1175.05,1029.87 1170.32,1025.89C1165.59,1021.91 1160.39,1019.92 1154.73,1019.92L1137.9,1019.92L1137.9,1232.24L1151.66,1232.24Z" style="fill-rule:nonzero;"/>
        </g>
        <g transform="matrix(1.36646,0,0,0.452143,-894.154,-423.943)">
            <path d="M1225.42,1176.51C1225.42,1159.7 1226.42,1144.44 1228.42,1130.73C1230.43,1117.02 1233.13,1105.29 1236.55,1095.56C1239.96,1085.83 1244.01,1078.31 1248.7,1073C1253.38,1067.69 1258.36,1065.04 1263.63,1065.04C1268.89,1065.04 1273.87,1067.69 1278.56,1073C1283.24,1078.31 1287.29,1085.83 1290.7,1095.56C1294.12,1105.29 1296.83,1117.02 1298.83,1130.73C1300.83,1144.44 1301.83,1159.7 1301.83,1176.51C1301.83,1193.32 1300.83,1208.58 1298.83,1222.29C1296.83,1236 1294.12,1247.73 1290.7,1257.46C1287.29,1267.19 1283.24,1274.71 1278.56,1280.02C1273.87,1285.32 1268.89,1287.98 1263.63,1287.98C1258.36,1287.98 1253.38,1285.32 1248.7,1280.02C1244.01,1274.71 1239.96,1267.19 1236.55,1257.46C1233.13,1247.73 1230.43,1236 1228.42,1222.29C1226.42,1208.58 1225.42,1193.32 1225.42,1176.51ZM1242.99,1176.51C1242.99,1184.77 1243.45,1192.73 1244.38,1200.39C1245.31,1208.06 1246.67,1214.85 1248.48,1220.74C1250.28,1226.64 1252.45,1231.36 1254.99,1234.9C1257.53,1238.44 1260.41,1240.21 1263.63,1240.21C1266.85,1240.21 1269.72,1238.44 1272.26,1234.9C1274.8,1231.36 1276.97,1226.64 1278.77,1220.74C1280.58,1214.85 1281.95,1208.06 1282.87,1200.39C1283.8,1192.73 1284.26,1184.77 1284.26,1176.51C1284.26,1168.25 1283.8,1160.29 1282.87,1152.62C1281.95,1144.96 1280.58,1138.17 1278.77,1132.28C1276.97,1126.38 1274.8,1121.66 1272.26,1118.12C1269.72,1114.58 1266.85,1112.81 1263.63,1112.81C1260.41,1112.81 1257.53,1114.58 1254.99,1118.12C1252.45,1121.66 1250.28,1126.38 1248.48,1132.28C1246.67,1138.17 1245.31,1144.96 1244.38,1152.62C1243.45,1160.29 1242.99,1168.25 1242.99,1176.51Z" style="fill-rule:nonzero;"/>
        </g>
    </g>
</svg>
